/* XPM */
static char *dc4174de25f14cd8f9fc3392c969dd2e1N0q9sNJuZnD5BhT[] = {
/* columns rows colors chars-per-pixel */
"64 64 168 2 ",
"   c #361C0F",
".  c #391C0E",
"X  c #3A1F13",
"o  c #362416",
"O  c #3B2316",
"+  c #3E261A",
"@  c #3F2B1D",
"#  c #412517",
"$  c #41261A",
"%  c #442A1D",
"&  c #492D1D",
"*  c #452E21",
"=  c #492E22",
"-  c #463023",
";  c #4C3225",
":  c #4E3629",
">  c #4F392B",
",  c #533525",
"<  c #533827",
"1  c #5C3926",
"2  c #51362A",
"3  c #543A2D",
"4  c #593C2D",
"5  c #563E31",
"6  c #5A3E31",
"7  c #623F2C",
"8  c #5D402F",
"9  c #564133",
"0  c #5C4235",
"q  c #5E4639",
"w  c #5F493A",
"e  c #624435",
"r  c #684434",
"t  c #644837",
"y  c #62463A",
"u  c #644A3D",
"i  c #6A4C3E",
"p  c #6F503E",
"a  c #664D41",
"s  c #6A4E42",
"d  c #675042",
"f  c #6C5245",
"g  c #6E5549",
"h  c #6F594B",
"j  c #725446",
"k  c #7A5747",
"l  c #735847",
"z  c #7C5947",
"x  c #72564A",
"c  c #7A574A",
"v  c #745A4C",
"b  c #7A5C4D",
"n  c #765D51",
"m  c #7A5E51",
"M  c #7D604F",
"N  c #776053",
"B  c #7D6254",
"V  c #7E6559",
"C  c #7F685A",
"Z  c #815E4D",
"A  c #825F51",
"S  c #82614E",
"D  c #826455",
"F  c #896654",
"G  c #846857",
"H  c #8B6956",
"J  c #836659",
"K  c #886759",
"L  c #856A5C",
"P  c #8B6E5E",
"I  c #896E5F",
"U  c #8F6E5D",
"Y  c #8C6C5F",
"T  c #8A6C5C",
"R  c #916D5C",
"E  c #8E705E",
"W  c #94715F",
"Q  c #876D60",
"!  c #896D61",
"~  c #8B6E60",
"^  c #8C6C61",
"/  c #8A6E61",
"(  c #906F60",
")  c #916E61",
"_  c #877062",
"`  c #8D7264",
"'  c #8E7568",
"]  c #917061",
"[  c #907063",
"{  c #977262",
"}  c #967161",
"|  c #957367",
" . c #967564",
".. c #937364",
"X. c #997564",
"o. c #977866",
"O. c #9B7867",
"+. c #927469",
"@. c #93756A",
"#. c #94766B",
"$. c #96766B",
"%. c #95776C",
"&. c #937669",
"*. c #98766C",
"=. c #9A776A",
"-. c #95796C",
";. c #987B6A",
":. c #9A7D6B",
">. c #99796C",
",. c #987A6F",
"<. c #9E7A6C",
"1. c #9A7D6D",
"2. c #9C7F6F",
"3. c #9F7E6F",
"4. c #9C7C6C",
"5. c #967E71",
"6. c #987A70",
"7. c #9B7B70",
"8. c #987C71",
"9. c #9A7C71",
"0. c #9F7D71",
"q. c #9E7E71",
"w. c #9E7E73",
"e. c #9B7D71",
"r. c #A37F6F",
"t. c #A27D6C",
"y. c #A07C70",
"u. c #A37E71",
"i. c #9B806F",
"p. c #9F8272",
"a. c #9D8174",
"s. c #A2816E",
"d. c #A28074",
"f. c #A38376",
"g. c #A48374",
"h. c #AA8575",
"j. c #A98573",
"k. c #AB8977",
"l. c #A78778",
"z. c #A4867A",
"x. c #A78A78",
"c. c #A6897B",
"v. c #AE8A7A",
"b. c #AA8A7D",
"n. c #AB8E7C",
"m. c #AC8F7F",
"M. c #AB8B7B",
"N. c #B28D7E",
"B. c #AE917F",
"V. c #B1907F",
"C. c #B6917F",
"Z. c #AD8D80",
"A. c #AC8F82",
"S. c #B68F80",
"D. c #A79082",
"F. c #AE9283",
"G. c #B39384",
"H. c #BA9585",
"J. c #B99382",
"K. c #BB9886",
"L. c #B59588",
"P. c #B59789",
"I. c #BC9C8B",
"U. c #BC9F91",
"Y. c #C09C8B",
"T. c #C6A492",
"R. c #C8A899",
"E. c #CBAEA0",
/* pixels */
"B N m B x 7.J B B B M l & o.E H D D M B v h C n N J a 6 i 6 1 & 2 2 0 2 4 6 4 4 0 u t r l p Z { H.r.r i b 3 d B b n m n *.m m V ",
"y v J J x | J D M b M 8 , G H H D B D b N v n n n a q *.w.9.z.w.Q J # f D A D F K ;.:.x.H V.N.j.{ z k e v 3 3 C V V m m *.J D m ",
"n J V v n ^ n b N M l & 1 :.o.G b D D G b g g n g 2 *.! | u.K A b i 0 4 u.b.Z.L.B.T :.p.j z D c K R i g g 4 ; n B L v K B m m B ",
"J B n g x n x b f p v ; < B.H M D M V G N v N w = Q *.7.y.u.A A b N f : J ^ D A G M K D j H D F D ) i t g 5 9 C N v x n B x m j ",
"V m x x g x x b N p M ; i B.H H c D J V Q g ; 2 6.6.w.*.w.*.R A D B D , m ) / ^ J V N K c F D A D K s 6 x 2 9 C V s j g x j b l ",
"m V x x s x n v l N M < l s.T W J D V T x ; 6 9.6.u.Z.u.u.| R A D J J 6 r D J J K K M N D D K K m *.3 4 v : : Q B x g v i v l M ",
"q n n g g x m c M C i 8 M g.H H ^ ` / g * ; 9.' ` ^ u.u.u.=.A R D b v t y L J T J N m B m D T J D +.2 5 N - + n n f h f v M b v ",
"> v v g v v m m I M t 8 p E G ..+.' s y * x ! ' +.| w.y.S.A R R D D j t 4 D D L K D B j v J J T *.! % y B > * a n g f v l v B T ",
"6 s x s m n x m N p 8 % 8 s.W E | a 6 2 2 +.6.! t.t.t.t.Y.W H F D z p u 8 M J L _ J m g v ^ D ! A.: 2 x V * = q f h n n n v c D ",
"> g g g m g m j B w < & r s.o.o.s 3 6 6 +.' *.J } t.t.r.j.O.S F D j M j & v _ Q ! J m m J J / %.Q = y n 2 5 * 5 g g g n x m c v ",
"; - g s x m m J f # & & i K k 0 6 = 2 f / ' ' c ) t.O.t.j.s.H F S M v t 3 w w N +.^ v J v u i g : 6 5 = X = = : 9 a h g l b M v ",
"n 5 = s m n v 2 # ; ; 8 7 4 r 1 ; 5 > x #.#.+.m ) y.O.s.k.{ p H S M b l 3 - d N ! x ; 6 4 0 3 % + : 6 n n g g g + w a h J B 4 # ",
"m n y q , $ = = 0 V ..` c.g.j.g.s 6 6 V ` %.^ ^ | =.u.u.7 1 X.H M D v f 0 o ; > 6 x Q Q A ` ! K J : V ' ! V V n n 5 g w 3 3 % 3 ",
"n g y * y s V ! ..x.i...b k A K x 6 6 ! ! ^ x ^ R | t.A j.Y.H H z B N i 9 % 9 C ' J ^ m m J m m V ! 6 n ^ V n x g 5 * * 3 s D ` ",
"C a 6 : m ! ' ' I f v j j b K K g 5 2 J ! x ^ K R t.F h.k.j.H S H M b f u : - N v m ! A A n n J n V g g 6.L V n f 5 9 ' -.a.U ..",
"n y : m s g i 0 i b b b A c A D a y ; Q 9.J K K A R } r.C.j.H F M M v v u w - h 5 J Q Q m J D m n n +.y ' m n n y * v 5 q u x x ",
"g g q V m V Q n v n m A b Z Z ) y g $ w.w.! ^ ^ R R t.t.C.C.R Z S z B g d q 5 a w f T ! Q A A m g J ^ *.g V n a g q V V ^ J a g ",
"n a 6 m m n f x A n c c c Z A ) 6 s 2 #.D.+.*.+.R R ) t.C.S.{ S j l D v a w - w i h T D ^ ^ A m m V V +.z.n g n a y m n n x n m ",
"V a q n n n s v x A D v c Z K K 6 s 6 A.z.y.*.*.X.W R X.j.Y.W R p o.m x g d - 5 h h J J Q ^ Q g m V J J 8.V n n a y V n g s n n ",
"n q a x g v x g n c A A A c ) K y s 2 s c ^ y.) R t.W O.j.j.R F p M Q n h 9 : q f w Q J m Q Q m x n J ^ #.V n n q a n x c g g x ",
"n : g n f g j c m A A c A m A 7 u u x c.z.^ | A H R W X.s.Y.R z p G D f y 2 : ; 9 9 t w Q N _ n x m ! ' z.V V g 2 g g s x c x A ",
"n @ V n x v s c A c c c Z c c 6 i i 3 g.w.*.X.|  .H X.3.s.T.S 1 G D b ; 5 m x x 9 8 - 9 d h ' V V m V V 6.V V g + ^ m n g y n J ",
"n @ h n v n j x i c b c j c j 6 s e 0 p...| | Y D T  .W H i c i E p 3 3 e.e.%.+.a.c.a.% % 2 v ' ^ V ^ ' ' ' n n $ n x x m x m s ",
"h @ 2 f n m c A b A c Z b J c 6 u , 4 ` ' [ $.$.K D i 8 1 8 , 1 3 & 8 N.G.*.) +.%.` -.' 0 @ 2 5 a ^ 6.' 6.' n g $ y m x x x m x ",
"5 o @ 5 _ V v c K A n A A ^ a 6 s 3 : &.#.' 8.D 6 6 2 6 4 0 , 4 # , t n.v.X.X.*.| +...` u .._ f : * a Q ' 6.V q + : 5 Q V n n ^ ",
"@ @ : w ! m A m K A A A c A 2 6 u 6 O x ! n a 5 6 6 = = = # # X % b H R s.j.{ } X.3.4.` t f.H ` A a : $ @ q * @ X X a Q V n g ^ ",
"* n d > ! m x c A m Q A m 6 y s 5 w 3 % @ * = * : 6 e 2 0 6 s n ; p M R C.t.X.X.W  .O.j K O.D D m m V n a * + @ g a q ! m n V J ",
"N 5 o   #.K x c c A m 6.; s s 6 > : * 5 6 y m x g g s e g s s a & e M S C.t.t.{ X.[ ..i n.i.H c f s ! ! ! ! V 5 5 * $ ' J s g m ",
"' C n = 5 g j c v x | x x x 6 y * 6 v x g x g s a 6 g s a s i x t & z S t.h.r.X.o.E D p v.v.W H K J v D ! ! ' ' ^ y X x m m x x ",
"_ _ Q n 6 = f ^ A ^ s 6 y 2 = 6 m m g s x x x s a g u c s a x s i & t M t.Y.t.O.:...k B v.N.t.W ) c M B J ! ! ! ^ V g = 2 g J V ",
"_ V n g ^ $ 6 6 J s s u ; 6 g c v g g c g v x f u s x m x j s s g % r F W C.t.W ..i.i ..x.C.t.H H z M G ^ ^ ' V n V x J = 6 s ^ ",
"_ ' x x f = 6 a ; 5 y x f y a a a x x x x x x g s s c x b x s j h * t p F T.s.t.o.i.l E x.T.j.W T B K E n J ! ^ ^ n x n $ y y 6 ",
"+.m x n g 5 q * q h n g s u 6 f f a x x f v v j j x g c x n g n f @ w p M K.x.o.i.i.U l k.Y.j.[ T T E V b J T ' J f v f ; d ; - ",
"Q A m m Q : a @ d a 6 * = 2 s a j x c s f l v f c n g s m n m n w o t f f i.v.3.W i.U M x.I.j.T D H D D M V I L V v N C 2 9 > n ",
"^ ^ n m n 5 g + g g a = f x f g x x s u l v j i s x m m m m m s @ o ; p G i.C.O.o...H l x.U.n.E E B G G b J J J ! v N _ - h O d ",
"^ +.m m n n g * d w y g s u 6 s j g s j x j v f f x m m m m s x B B & t b ..K.3.o.o.E j C.G.V...` E B G G V I I &.V B v g n * g ",
"*.! L ! 6 Q g : - 5 g a y a s a c x f n m v b b x c x m m x L x l T e 3 c T Y.i.:.s.E j F.e.S.9.E G I J ` I L ;.' V _ d n h - > ",
"6.L B s 5 V n : 5 d a a s a s s g g s c N J K v x x n b m A m v l V V # j D R.k.i.i.E i z.P.P.w.E E K ` ' I ` -.' N n - C N 5 9 ",
"L T V X V C V 9 5 a a g a a v s s n f s B D K m b b b D n Q A v b N E 4 e v I.g.;.;.` c c.E.L.#.I L I ` D _ G ! Q J * h C N 9 > ",
"^ ^ m = V C n 9 @ g 5 a a s a a f m c s K J J n b n b J m m A m D B T v . e F.p.....B T c.D.D.' E L G ` b T I I Q Q + C C N q - ",
"&.T s e ! V n w : - d a a g s v n n n a c J Q m b M b V B m J Q J B I ` ; u c f.-.p.` i x v m ^ Q T J j T ' T ` ! n 3 m ! n a > ",
"+.&.e u J n m a 5 @ 6 g q y g g x f v g 3 [ J K B f N D m J J +.B L J a.- b u j E J B 0 v g s f v D D 4 -...-.` | u 6 ^ m v s 6 ",
"a.D 3 0 ! n a g 5 + 6 a g n g g x g g x 0 m J J M M v B J J L J L V Q F.w w > N x B v J q 6 y a s f f g | -.-.1./ 6 2 [ n v x 6 ",
"1.g u 6 m n g h 5 * : h a m m n g s x n g x / ! B C B B ^ ` L Q Q Q -.D.u ; > N g v m m n : 9 q u t t i b G a.1.J y 2 ^ v x x 6 ",
"x s 6 6 ! x a f a > X a m a Q v v 0 V h 2 : 8 b G E i.i.' -.-.' I ` n q d - 9 h v v x x m x : 5 0 h f t f f M M s y 2 L v s s a ",
"A f : 6 _ x g x n > O * = = % 5 # % % q e 3 > # - ; 3 f N v L ' 5.B q w w 9 d N g v x v n V y > 5 f 9 u u u f V s 6 3 J v f j x ",
"x g 5 6 ! n g x v > > : n V V : 0 n L v l v f h w i w - : > - - i 0 q w d 9 w h n v v n f g h 5 : 3 9 f u d f g x 3 3 L x s g c ",
"x g 6 n ' m m n f 0 u ; m V n # K v h d p f f p h h l B h w 3 > 3 2 w : - @ @ h g g n g g g n V 9 > 9 f d u g f x y 0 ` J g m n ",
"g n 0 v f.n a a n m v 9 0 f 3 4 B v j k l l j p h B b N L u L C m J Q J V N : d g h n h n n m N C : d f d d d d h w y w.Q n 6 g ",
"v n a 5 6 s m m x m g n O 2 2 K c c b b h M v f M j l G B d C h V m g m m g g ; n g g g g V m h N 4 d h h u d N n g a m 5 a V n ",
"n q : 5 m / v v n f g N ; % F.b k k c D B M j v v m g b V 3 ' N x J Q n n v n : a a d g g h n x v 9 9 u d u g n h 2 2 6 #.m v n ",
"> q n N n ' b g s g f x < f ! b j l v b M B M v v B m B f > N C V n n m x g C a q a d d d h n x - B ` w q u d 9 : d n g 8.n g g ",
"' Q n g n +.f v h i l B % k D b c m c v B V n n b m m J = 6 f -.J n m x N V N C : a g g s s e = 0 D ! J @ * ; _ L m n a #.m n g ",
"N n x g x ' b b l l B u & 3.K D D b m B v b n B B m J x X 2 6 0 3 y ! m v n b d * 5 : @ * = 5 q 0 u j e N a b Q v n n s 8.n b g ",
"n h m V x ! m m B B B t , x.T H D K D v v b m m J n x $ g 0 ; - 6 6 g s s u ; ; $ ; - 6 s a v A d.z.j e b u 2 N B g n f E J v B ",
"V V V m D 4.D B M M b 4 4 K T H J B m N h v n n m n 3 / J D B j f f $ 2 e s v x m ! m ! ! _ w.Z.I.D f u g u : L n B B f a.D V B ",
"s J L x I K M b M M p ; 8 i.R S D D G N v v x n n 2 ! ` ..:.O.W A y , i *.K ' 1.p.p.F.U.b 9.| A A *.x y g a : q J J m m +.D m B ",
"V B v x V b v N l N t & M i.H S z V L I v v v m = m $.$.:.x.S S m f s 2 %.b.-.p.$.m J D f A K c A ^ c y g q = Q V m m v ! x b v ",
"J m j s j j l v l t M & M s.H S M H N B V v d + J #.a.$.3.o.H F A D v = D e.L L T D m K j K A K K K x 0 g 5 : C m x g g v f b k ",
"V m x g i v v v l M l - U i.E H M B J G V 3 + Q 6.6.g.3.s.O.F F K A K 6 f ` D K D D D D c K K A A A s 2 g 6 : V V g g s j l b v ",
"J n g x f N l v N M 8 8 W E E H T T C B > + #.*.%.9.y.u.r.X.F F D D b y 0 B T J I m b B Q A ^ A A +.y 2 g 5 * V m x x g x b x b ",
"g x f x p l M M M M t 8 E i.H W E ` C < - f _ ' ^ ) f.v.j.Z F F K m v q 0 K B I J V N D n A ^ Q ^ *.= 3 n 5 + a m g x g x m v D ",
"y g v v N N N M C p 8 - p P E E ` M 0 q 5 Q _ ' *.y.=.t.J.X.R H D v p t 0 N G L T J v g x J Q A y.A = u Q 5 : > n x x n x m m K ",
"a g v v N N l N M 8 < ; M E W W H 3 5 2 d ' #.+.) =.z.u.C.W F H D b v p 3 b _ J ` J m x J m J ^ Z.= 6 x V * * q g x x V c b b B "
};
