/* XPM */
static char *_afbddfd4662469afa3250ef489fd5e4qqSzakHgX6gbqonf[] = {
/* columns rows colors chars-per-pixel */
"64 64 195 2 ",
"   c #251C17",
".  c #2B1D16",
"X  c #271A19",
"o  c #2D1F19",
"O  c #331E17",
"+  c #2B2015",
"@  c #2D211A",
"#  c #312016",
"$  c #33231B",
"%  c #3C251E",
"&  c #342A1E",
"*  c #3A291E",
"=  c #2B2522",
"-  c #2C2B22",
";  c #392723",
":  c #332D24",
">  c #3C2A22",
",  c #362D29",
"<  c #3B2D2A",
"1  c #353126",
"2  c #3B3226",
"3  c #3F3827",
"4  c #363228",
"5  c #3B342B",
"6  c #3E392C",
"7  c #3C2F30",
"8  c #3E3631",
"9  c #3D3932",
"0  c #412B1E",
"q  c #422A23",
"w  c #4D2F2D",
"e  c #443224",
"r  c #4C3426",
"t  c #4A3A26",
"y  c #41352C",
"u  c #4B3329",
"i  c #433C2D",
"p  c #4C3D2D",
"a  c #503D29",
"s  c #403733",
"d  c #443C33",
"f  c #4A3E34",
"g  c #463D3A",
"h  c #493E39",
"j  c #513F30",
"k  c #46412F",
"l  c #48412F",
"z  c #53422E",
"x  c #464133",
"c  c #4C4335",
"v  c #4E4837",
"b  c #45443E",
"n  c #4D453A",
"m  c #4E4A3C",
"M  c #514535",
"N  c #584431",
"B  c #544A36",
"V  c #594A37",
"C  c #52463A",
"Z  c #554B3C",
"A  c #594D3E",
"S  c #57513E",
"D  c #5B513E",
"F  c #61533E",
"G  c #503F40",
"H  c #4E4642",
"J  c #464B43",
"K  c #4F4C41",
"L  c #514642",
"P  c #554C42",
"I  c #5A4E41",
"U  c #534D49",
"Y  c #594C4A",
"T  c #555144",
"R  c #5D5243",
"E  c #5E5842",
"W  c #56544B",
"Q  c #5C554A",
"!  c #57584B",
"~  c #5C594C",
"^  c #575150",
"/  c #5C5752",
"(  c #5E5C53",
")  c #615545",
"_  c #685642",
"`  c #645946",
"'  c #695C46",
"]  c #625649",
"[  c #655A4A",
"{  c #6A5D4D",
"}  c #635E53",
"|  c #6B5F51",
" . c #645D59",
".. c #705F51",
"X. c #6F6147",
"o. c #66624D",
"O. c #6C614D",
"+. c #71644E",
"@. c #71684E",
"#. c #656254",
"$. c #6D6252",
"%. c #6B6957",
"&. c #64645B",
"*. c #6C665A",
"=. c #6C6A5D",
"-. c #726554",
";. c #786755",
":. c #756955",
">. c #796B55",
",. c #72675A",
"<. c #786759",
"1. c #716A59",
"2. c #766B59",
"3. c #766B5A",
"4. c #766C5A",
"5. c #756B5D",
"6. c #736C5D",
"7. c #766E5E",
"8. c #756B5A",
"9. c #796E5A",
"0. c #7A6E5D",
"q. c #7C6F5E",
"w. c #7A6D5B",
"e. c #7C7056",
"r. c #76705E",
"t. c #7B705B",
"y. c #7B705D",
"u. c #7D725F",
"i. c #7E725F",
"p. c #7D715E",
"a. c #7F745F",
"s. c #7C715D",
"d. c #666661",
"f. c #6B6760",
"g. c #666962",
"h. c #6D6B62",
"j. c #776F61",
"k. c #726E64",
"l. c #7A6F62",
"z. c #6E7067",
"x. c #6E7069",
"c. c #737264",
"v. c #797161",
"b. c #7A7163",
"n. c #7F7360",
"m. c #7E7461",
"M. c #7F7665",
"N. c #7C7362",
"B. c #75746C",
"V. c #7C766A",
"C. c #7C7A6C",
"Z. c #757772",
"A. c #787770",
"S. c #767875",
"D. c #7C7B73",
"F. c #7C7E79",
"G. c #816F5C",
"H. c #81725D",
"J. c #81795E",
"K. c #807060",
"L. c #827763",
"P. c #807461",
"I. c #827764",
"U. c #827662",
"Y. c #897762",
"T. c #817967",
"R. c #867965",
"E. c #857964",
"W. c #897B66",
"Q. c #807768",
"!. c #827969",
"~. c #857B6A",
"^. c #8A7D6A",
"/. c #817F74",
"(. c #7E827B",
"). c #8D806C",
"_. c #90806D",
"`. c #838176",
"'. c #8A8374",
"]. c #83847C",
"[. c #8B867A",
"{. c #8C8A7E",
"}. c #908C7D",
"|. c #838681",
" X c #858983",
".X c #8A8C83",
"XX c #8D8F89",
"oX c #918E82",
"OX c #908F89",
"+X c #8F928A",
"@X c #92948B",
"#X c #999589",
"$X c #96998E",
"%X c #979B93",
"&X c #9B9C94",
/* pixels */
"5.Q.7.7.b.r.%.b.b.1.$.6.$.:.%.Q.[ *.!.6.$.1.N.#.O.$.$.=.%.$.[ 7.=.{ !.^.!.$.v.=.o.6.%.$.[ $.b.#.j.!.N.b.v.$.#.[ #.{ -.b.N.!.v.$.",
"2.L.R.p.L.2.9.p.a.m.$.-.:.$.;.-.M d v Z x c c x 6 x x x x d x d i x v C c m c k c s i f x x c i { 2.N.p.m.0.0.$.[ $.3.t.m.a.m.$.",
"0.9.R.q.t.a.3.2.L.~.p.O.:.-.%.5 s M I I P Z P P C Z Z C Z I C 8 x L R [ ] R Z n d f A I x I I P i -.2.0.O.t.$.{ { $.6.$.$.:.t.O.",
":.t.R.q.2.:.O.p.L.W.$.{ 0.$.[ = C A R R ] { R D R A Z R ) [ P s F Z | { R E ] C c C ] ) v R ] ] R :.o.H.$.1.:.$.{ O.$.O.-.r.O.O.",
"2.a.^.E.9.2.$.$.m.^.#.i i d x 6 A I A I ) { R ] R [ { { ] { I 9 I R -.` R R ) I c M I R C I R ) ) A x d k ) a.:.O.$.3.{ $.9.-.{ ",
"t.E.2.:.m.-.3.t.L.E.& d Z Z C Z A A C C ) ' R R ] R ] R R $.Z d A ] $.[ I I ] I C C ) R M A I ) R V c R C C :.0.$.$.$.{ { %.{ $.",
"t.b.1.w.L.2.L.E.^.#.: V M f Z M h f M D ) { | ) ] R R R R Z R b ) ] C ` _ A { ~ ] -.[ R R Z I ) I V C Z B c [ -.:.O.[ { D Z $.$.",
"$.p.`.J 2 2 x J.^.'.|.c Z Z c C C f M R A -.$.R D R Z P P n R g _ } { } Q I { ..| { ) ) R R ] ' A ) Z M M ~ -.$.3.c - : - ~ $.' ",
"v O.L.&X=.A A l 9.W.!. XZ V n Z Z Z C ) R { 2.;.) P R A c f M 5 N A ) B R } ] $.<.| R ) ) I ] ] ) I C n &.-.1.O.i 1 i n  .2.:.x ",
"] i O.L.#Xc.B D c :.Y.9.@XT A E ' I C I ] { 2.-.~ { a , W W U U Y U ^ Y 7 e { ] $.| R C R ) [ ) ] I n #.L.I.>.i : l E %.-.-.3 s ",
"R R p { L.oXA.C V i o.w.<.XXQ ) ) ) Z R ;.$.~ O.F O H $.R ) Q P R Q $.R ,./ ; N 6.R R ) ' ] { O.{ R } -.I.:.3 5 M T V.:.` 1 d Z ",
") R ] Z ` :.'.S.C D x E :.q.@X} ) ) P A R | ) > , k.6.$.{ R ] R [ ] { -.) } V.n * ) I P ) ] ] ] #.} $.{ o.3 d Z ~ N.t.] 2 d C A ",
"{ D ] ' B D w.N. XC B d A 9.O..X( R R I $.M @ L | { 5.<.Z Z { [ | { R I -.$.) j.*.< p [ T [ R R =.p.:.) 2 n E / 2.9.` : d C c Z ",
") Z ) ) ) f C E.^. XL ) Z R 9.{ {.&.R ) > 5 } Q I | $.[ R { [ -.2.$.-.{ R R I Z ~ l.H ; A [ T #.-.:.` : n Z ( t.p.D 1 C C C A R ",
"] A ` ) D E M A L.0. X} { Z A :.>.{.&.$ Q [ R { ) ) ..{ { R ) :.5.-.-.| A R R R [ I |  .y H k.-.H.o.5 M [ #.t.L.) : h A M Z R R ",
"] { R M C R Z R Z :.0.@X~ O.C A ,.;.`.Z.Z P { { ] ] { ] { Z I ] R { A I R ` ) Z I ] I [ &.#.L.H.' 5 P ) =.3.2.C 1 Z I I C Z C R ",
"R ) I Z Z A Z ' { c :.L.+X( @.2 M -.w.}.].] ) { [ { { [ [ ) Z I ) ] C I ) { | { $.| A | $.H.:.D   ] T *.t.>.C 4 P ) I R R c R ) ",
"R ) Q R [ { ] R { [ Z L.E.$Xn H } c w.~.[.].A ) R ) { ' R Z I R R ] I I Z ) ] | ] { ! =.1.2.c 5 W y c.-.H.c 2 Z I I I [ ' A I ) ",
"R ] R I [ { ) ) { ] $.C p.q..Xh.) $.v U.~.~.F.I ' R R [ R ] [ ) ] I R Z I ) [ ' R &.,.:.-.c 5 P Q h.G.9.M g I v ) I [ ' -.) A I ",
"' ' { { { ] R Z m -.z : Z :.>.[.B.{ { c O.:.b. XR A Z A R ] { ) ] I A C Z A ] ] &.y.2.O.c 6 ] ~ %.:.O.n = p [ Z ) ] { -.[ ] ) P ",
"[ A Z ] ..] n R A $ h ,.Z x $.Y.[.B.] R i $.G.6.|.Z R I ` ) -.] Q ;.' P C Z v ! :.-.{ x s { [ =.:.O.y 5 =.U > x { I R { ) [ Z I ",
"[ I R I I P R u , } $.R | ) c :.H.[.(.R A c :.H.l..XI I I R { ] { I ) Z c x #.3.t.@.i d R %.v.t.O.3 d [ A P  .h q ) U ] ) A C I ",
") A { 2.[ M & b [ P [ { ] ] ] d o.L.).(.C ) x @.H.5.(.Q R A Z { { R ] ) Z #.t.E.O.3 c ] } l.L.:.2 h R ] { P c / Q < M R ) ) { { ",
"R R O.*.j.. ] P n { R ] ] E I I x ' :.m.|.C M x ' :.[ &X} A D { -.R ) ~ =.L.L.O.1 d R %.2.E.@.5 b ) ) ) ] V Z n I f.u | I { -.{ ",
"R ) $.| 5.o +.C ` R Z A E A Z Z I x ` L.:..Xn c i R Y.:. X~ I ) $.[ R =.m.H.{ & 6 L #.1.2.O.2 P { ) I I C C C R I { * -.[ 2.[ { ",
"A ] [ { 1.O ;.P v C C Z ) R A A C Z M ) 2.9.D.F.D.B.0.-.-.V.h.B.c.B.b.w.0.=.&.c.x.=.2.:.E > c Z C ' Z Z Z A ) I I Q & -.[ { [ ) ",
"] { -.{ *.o -.n Z A Z P Z I R A ) C Z x A W.^.w.t.E.q.:.:.-.] ,.9.] 3.;.$.:.b.^.:.-.:.` : n A Z A ) I A I I | { P Q ; <.] [ I { ",
"[ $.$.[ 2.+ { Z Z R R I A A D I ) n M V c D p.7.v Z V I.N.$.c Z C c o.L.t.v S D p.>.A 4 I R D ) Z ) c A C C C ] R ~ * 9.$.{ [ ] ",
"] { -.$.7.o ) Z A C P Z A Z R I ) R A C ] ' E.t.- c A E.p.! 4 n c f @.0.L.= n V w.I.= Z { ) Z C A Z I Z c I I R Z Q * 2.{ { I O.",
"$.-.' { l.@ ) Z I Z I Z C I I I A ) ) ) I F 9.$.1 C _ L.Y.! 6 ) R A -.3.7.: R ' >.%.: R ] Z C A I R ) R R C I ] Z R q @.Z E 2.<.",
"I ,.R ~ 7.@ ` Z [ ) Z I A Z I I R ` R R A F L.L.4 I ) 2.L.~ i { ] { @.1.p.1 Q ` ^.L.: I I [ ) A ] { ) ) [ A R ) T Q > o.P C ] -.",
"| | [ R 5.O ] Z ) { ] I I C I I R ) R Z [ ' p.7.4 Q F :.Y.R x $.:.-.t.E.^.5 R +.).~.: A ] :.I ] { -.[ ] { [ ] I R ~ * O.[ R ~ 2.",
"s s 9 8 9 q ] Z $.{ | R [ ] ] $.| ) ] R { ' t.1.4 { :.R.L.T c $.%.>.e.E.E.4 %._ O.$.: I I [ ] [ -.-.;.{ Q I R ) R Q > h d s g s ",
"j./ ] ] ] $ ] I [ ] R R R ) ;.{ ) C ] ] [ ` L.!.1 R X.E.p.T n -.] { >.R.m.4 -.) 2.1.: R A R -.| -.-.] A I R ) ) R Q 0 ] [  .6.b.",
"[ ) E S ] @ I A { R ] R R ] { ) ) C A ] ;.{ 2.2.1 R X.E.W.{ n %.) ' H.N.R.4 { F 1.:.1 R R R ) ] I I I I I ) [ { ~ } > -.c [ { R ",
"{ $.v P k.o ) ~ -.] { R { { | ] ] Z Z ] { ' :.$.: Z ) R.^.} n { -.{ >.I.!.1 ' D -.%.4 R R { Z Z I I I I I I R { I Q % O.C c ] $.",
"[ | $...7.o -.R -.| [ I ] { E R I ] [ ' ) ' >.%.- Q V 0.w.[ x { %.' >.3.:.: ' X.:.6.& R ) Z C C A A ) I ] C ] { Z Z q { ] ] { | ",
"[ [ { | 1.o O.] { R ) R Z V C Z I ) ] ) S h.t.a.x.x.c.{ <.6.B.B.h.D.N.2.:.x.(.D.3.-.|.R A Z ) Z C Z R ] { A I ] Z m q ) ~ { | ) ",
"R ] { ] ,.. -.} { ) ] R Z A Z Z Z I R ) =.6.t.N.).>.2.-.{ 9.O.2.l.w.W.:.E.E.^.).E.:.R.%XZ Z Z A A R A R [ Z I { R W * ] | { { ] ",
"R I { { $.. -.{ { { O.R P ) R C c M P 6.M.>.] Z Z Z p.,.{ { v Z E ) :.I.p.t.T Z S { ).M.&XP M Z ) ) A I ) ] A _ P T > ;.} ] I ) ",
") $.-.] } O ..L c E | { Z A R I C Z =.!.w.D : 5 9 =.L.L.D 5 c Q R A d ) m.9..Xb e i ] W.7.+XP M I ) R R ) { ] M Z P ; ) R $.I R ",
"] | ;.} $.. ) R Z ) [ { R A I C S c.t.t.A & c Z =.p.p.` 2 d R ) :.[ I x ] p.@.XX( I C B t.:.XX! R ] | { R ) ) I Z ) q $.[ { ] ) ",
"{ { ;.$.{ f.< y { P [ ,.{ I I S #.3.t.V : v ! 6.L.w.E & n [ R R ' [ ) A n S 0.+..X&.B C c t.-.(.#.I { | O.] U { M ; ! I ] ] A { ",
"-.{ -.2.} ] b.W ; C { ] -.) } =.-.$.v : n ] C.w.:.S : h ] -.-.2.] -.' I V d D +.:.{.h.D E V >.L.oXg.A [ R #.' > h $.n I $.] R R ",
"{ ' -.2.' -.R ] h.s > I m T 6.2.{ x 5 v ! V.E.>.Z - I ` ..-.;...] <.{ I C M h c t.J.`.D.[ $.V r.Y./.g.n { p > } } C Z ) { R ` R ",
"{ ] ) D ] -.| Q D #./ > W 7.0.:.i d P ! 1.:.{ M , C ] ) ' %.;.-.[ | ' P I A A M V L.>.{.].-.$.V >.p.'.c.@ H b.] I ) C ) ] E R A ",
"{ I C Z ] -.] { { C U } 6.3.:.3 5 E Q $.9.>.l : C _ ] R { { -.[ [ | ..| ) Z A A R C 3.H.'. XR P S 2.;.k.(.| ] -.] D I I I R P A ",
"I C C A { { [ ] ] ` ! 7.L.o.& & ] W %.-.+.x 1 C I ) ) ) { ) ) { -.-.-._ R I P ) R ] v @.9.j.Z.P z : R :.~..X} ' ] I I I I Z Z R ",
"I I ) A ) [ I I ) } $.t.o.1 W L W $.O.o.k 5 C A Z A R I | { -.-.-.| I I Z Z Z I R O.| c { >.7.].5 } d O.t.6.D.c E Z A Z R R ) ` ",
"-.) R ) ) ) A Z #.6.X.) 5 Z T g.R.:.{ c n A ) I ) ) { ) ] ....| { { R I Z Z Z Z I $.] R c -.R.p. Xn F ! S $.$. XP A Z C A I Z R ",
"..R I ) ) ) E ~ j.p.S : Z #.6.R.R.O.s X C ~ R 0.{ ] R ) R ' | { | ..I C A C C A Q Q { A & x :.H.$..X~ ) P V :.0.|.n Z A Z Z I Z ",
"{ R D R A ~ =.2.:.D 1 C ] h.N.R.:.6 P Z.g * D -.I { R [ | ) ..-.O.{ A I Z I A n P >.u , | [ Z o.L.<..XQ V c S >.2.].L B ) A ] I ",
"_ A I Z S z.W.H.V 4 R R c.H.L.{ i P $.Z [ / < a $.P Q [ R ` ] ] R ) ] ` I I n R z $ / ,.R | ;.R ' 2.-.]./ M C C :.-.(.n V C A I ",
"| I D n =.W.2.c 5 R ] =.q.L.` 3 P [ ' { U P f.Y % E 6.[ { C ] I I { R Z R | A > s l.<.I } ;.;.$.T R H.1. XQ M Z c $.O.(.H c C A ",
"{ I T #.O.X.k 5 R ~ C.w.9.` 1 R { I { [ ..R C *.h.w u -.$.] P I Q | ] ! ] f ; U [ Z | R ) R ] ' { Z D t.:.oXk.M C l :.:.].Q c { ",
") R *.{ { 2 : C [ c.P.E.F : n R R A ` ) ] Z R ] ] C. .; y 2 5 y y y e 2 > d } C c I ) ! I I ] ] ' I n V t.L.@Xh.t c i { O.D.&.) ",
"~ #.$.) 2 5 c K C.L.p.F 1 c A ] R A ` ) R I ) ] $.] *.k.f.#.[ n I *.} ( ( [ P P Z A { E R ) { ] A ) A c V L.>.{.&.3 i i ` :.].h.",
"1.:.R 6 b [ #.b.H.p.D : C ) V R Z Z A A Z Z { { I O.R P ] R T s V I { { $.,.| I Z Z -.+.{ I _ ) A Z Z Z x A >.>.V.g.K Q T $.9.].",
"O.-.6.h.*.=.r.2.;.#.: P I A R ) Z R I c C Z { ] R Z ) [ R Z R s A Y V ` q.>.R I Z R ' [ ] _ Q I V M Z M Z A 3.1.O.$.*.1.`.I.p.w.",
"$.,.$.[ O.[ :.:.3.^.5 D C M B ) I A M M C R I ) R I R ] Z P Z s D I P { -.-.' | [ ) I ) ' R C C Z A B B c [ L.-.1.-.R t.-.w.q.w.",
"{ O.-.:.p.R.t.-.p.2.D.&.*.h.=.~ ) A V M C Z A R I C Z Z I I Z s A P ) { { R ] $.+.A I ) ' A Z c C &.h.g.A.C.^.9.$.$.{ { :.a.m.9.",
"{ [ O.:.3.p.t.t.-.2.:.0.2.-.*.x { I ] C R A I ) I C Z I ] R P 8 A L ) [ { I R ) Z I ] [ { { C C R r.%.N.-.p.^.E.3.$.O.-.9.3.$.-.",
"{ { -.3.m.p.9.L.9.0.{ 9.9.{ P.W ' { ] ' ) V A I [ I Z I ) I L 5 V A F ) R Z Z C C ) ) _ ' ) R Z $.t.w.H.N.R.^.$.O.o.{ { @.L.:.$.",
"$.O.-.2.p.0.9.N.t.0.-.-.{ -.>.oXB././.F.A.h.h.*.h.h.*.h.h.=.g.#.k.k.B.B.k.h.f.*.k.B.B.D.B.B.B.B.=.p.H.H.L.L.2.{ -.{ { { O.2.$.O."
};
