/* XPM */
static char *c092d0297f4a4280e312dd4ca7d5f3552hDlk4NMTadMOm17[] = {
/* columns rows colors chars-per-pixel */
"64 64 186 2 ",
"   c #1E1D1B",
".  c #24241F",
"X  c #252524",
"o  c #292727",
"O  c #272827",
"+  c #2A2927",
"@  c #292728",
"#  c #262F2D",
"$  c #2D2C2B",
"%  c #312E2D",
"&  c #2F312E",
"*  c #373127",
"=  c #393424",
"-  c #33312E",
";  c #3A352B",
":  c #3E392B",
">  c #2F3031",
",  c #353432",
"<  c #393634",
"1  c #353A36",
"2  c #3A3936",
"3  c #353639",
"4  c #383739",
"5  c #353A38",
"6  c #3D3C3A",
"7  c #433C2D",
"8  c #423D34",
"9  c #413E3C",
"0  c #2F433C",
"q  c #35433D",
"w  c #3C423E",
"e  c #574A2F",
"r  c #464136",
"t  c #4B4334",
"y  c #43413E",
"u  c #4A453C",
"i  c #4E493F",
"p  c #504637",
"a  c #574A35",
"s  c #594B32",
"d  c #534B3C",
"f  c #594D3D",
"g  c #57503F",
"h  c #5D523D",
"j  c #675437",
"k  c #63553D",
"l  c #6B5A3D",
"z  c #7A653B",
"x  c #3E3E42",
"c  c #354541",
"v  c #3D4541",
"b  c #344B43",
"n  c #3C4B44",
"m  c #3B4E49",
"M  c #33534A",
"N  c #3C544C",
"B  c #37594E",
"V  c #365C52",
"C  c #3D5C52",
"Z  c #2F6456",
"A  c #3B6356",
"S  c #3B6459",
"D  c #3E7165",
"F  c #454442",
"G  c #494644",
"H  c #454A45",
"J  c #4B4946",
"K  c #444D48",
"L  c #4D4C49",
"P  c #534D43",
"I  c #514E4B",
"U  c #44524C",
"Y  c #4C534E",
"T  c #565145",
"R  c #5B5344",
"E  c #53514D",
"W  c #5B554B",
"Q  c #5D594E",
"!  c #4F4F51",
"~  c #465751",
"^  c #4D5651",
"/  c #445A52",
"(  c #4B5B54",
")  c #4E5E58",
"_  c #555452",
"`  c #595653",
"'  c #555A55",
"]  c #5B5956",
"[  c #545D59",
"{  c #5D5C59",
"}  c #615642",
"|  c #645A46",
" . c #6A5C44",
".. c #625749",
"X. c #635B4B",
"o. c #695F49",
"O. c #625C55",
"+. c #615F5C",
"@. c #625E5B",
"#. c #4C6057",
"$. c #42665B",
"%. c #4C635A",
"&. c #466B5F",
"*. c #4E685F",
"=. c #53625A",
"-. c #5B625D",
";. c #6E6146",
":. c #6D614C",
">. c #746344",
",. c #786341",
"<. c #7C6847",
"1. c #73644A",
"2. c #74654B",
"3. c #7A6749",
"4. c #77684F",
"5. c #7B6B4C",
"6. c #6A6253",
"7. c #62615D",
"8. c #65625E",
"9. c #63615D",
"0. c #69645E",
"q. c #726752",
"w. c #746854",
"e. c #7B6C52",
"r. c #71695B",
"t. c #7C725D",
"y. c #436B60",
"u. c #4C6D62",
"i. c #546660",
"p. c #5E6761",
"a. c #546B62",
"s. c #586C65",
"d. c #457367",
"f. c #417668",
"g. c #5B756B",
"h. c #676362",
"j. c #666460",
"k. c #676763",
"l. c #656461",
"z. c #696662",
"x. c #696562",
"c. c #6A6662",
"v. c #666964",
"b. c #646963",
"n. c #6A6966",
"m. c #6E6B67",
"M. c #686C67",
"N. c #6C6A66",
"B. c #6F6D69",
"V. c #6E6C69",
"C. c #716A67",
"Z. c #716F6B",
"A. c #716E6A",
"S. c #6F716C",
"D. c #62736B",
"F. c #76726E",
"G. c #74716C",
"H. c #79736F",
"J. c #767571",
"K. c #797671",
"L. c #7A7571",
"P. c #7C7975",
"I. c #876F42",
"U. c #87714F",
"Y. c #967B4F",
"T. c #997C4F",
"R. c #887451",
"E. c #8E7A55",
"W. c #82745A",
"Q. c #887658",
"!. c #85785F",
"~. c #8B785D",
"^. c #937D57",
"/. c #907F58",
"(. c #837963",
"). c #917F60",
"_. c #817C76",
"`. c #998357",
"'. c #96815A",
"]. c #AD8C5C",
"[. c #B2925E",
"{. c #9E8B60",
"}. c #82817C",
"|. c #AF9163",
" X c #B29360",
".X c #BC9C63",
/* pixels */
"j.z.m.n.t.Q.O._ x.0.C.J.L.F.L.+.J ` x._ I ` 8.] O.R ] { L I _ ` @.F ! L ] H T E ! G H G G ` G , L F F J G G y F , , e.!.6 , $ $ ",
"j.B.{ G f @.` _ { _ [ E I z.F.0.L E ` ! 8.@.8.] J { L { { _ G ] @.9 ` ` { F _ i L I I J y I J < E J H , < w 4 w , , , ; * 6 4 $ ",
"A.{ T F z.@.] b.v.B.8.K.F.] J.` J _ K.A.I y I L { L I @.` F ` ] E ` 6 _ _ L F _ F 9 2 G ` ` L 2 I J 6 G H 6 w w v v @ 2 O * 6 - ",
"{ P <.8.{ C.n.z.b.k.m.K.A.@.J._ E :._ L.E 6.@.{ L _ N.` P L ` @.+.J P d ' ` _ G F L Q J h.x | J G L F G F 6 6 F 6 F 9 , , 4.= , ",
"T 5.{ @.I ` { [ E _ ] E @.9.8.{ 7.O.1.] ` L 0.{ { k.{ u E @.+.z.h.k.{ y G { ] ` _ ] F I J  .} G F F G L 4 , < < n 3 v - , >  .: ",
"y @.O.@.N.c.C.@.C.z.B.H.U b.z.B.] { O.G W G 7.I z.@.6 F j.8.+.` ] ` @.7.w 6 ` ` I { J J 2 J L L J F Y b I F w F 9 6 6 9 F @ , @ ",
"@.E ] E E ` O.@.O.O.8.z.L.J z.j.C.] h.L U.:.! h.@.G I ] n.{ { ` p.{ { 7.I ! H ] z.L X.`.J L L _ L G , ! G x 6 6 6 2 6 2 2 y @ < ",
"E m.@.] @.x.h.h.8.@.8.A.n.P.y }.7.x.` x. ..Xo.` _ J L _ E 9.+.l.+.@.{ I _ J H ] H T .X4.] G _ E E < ` H H G 6 6 6 y 6 6 2 < y @ ",
"8.8.z.8.j.@.A.@.h.@.0.A.A.m.G.J P.A.Z.9 G } u +.l.Q l.T ` j.j.h.@.l.@._ R ] W _ ` 9 k 9 F ` I ` 9 J F G G G 9 F 6 F 9 4 4 < - 9 ",
"l.0.n.m.B.8.A.@.N.@.c.C.L.m.B.m.L z._ H _ { 7.F ` P X.| ` ] I ^ L L ` J o...P L F _ E L 4 G L 9 I I G G I G 9 G 2 y y 6 6 2 , - ",
"l.z.A.C.m.{ J.@.A.@.c.x.c.A.j.G.j.{ 2.{ _ ` L 7.h '.t.e.G F W X.W O.F F q.W.~. .@.I I G J 1.G I E P G G J P 9 G 6 9 4 6 6 6 , < ",
"A.z.c.z.m.9.z.9.C.+.@.h.N.{ N.F.I 4.O._ 0.@.` ` _ -.` _ ] ` ] ` ] ] _ _ _ L _ I I ` ` _ 9 P 3.H I L F G G G 9 9 F 6 6 6 9 2 < 2 ",
"_ ` { @.@.8.{ { ` L.h.C.z.N.F.J 9 ] ] m.c.c.` E _ ] ! E _ I ` E E _ I L L G _ L I I ` ` ] 9 L , G E G G G F G 2 3 6 6 F 9 9 4 , ",
"4.3.9 F H P ..;.0.{ C.z.0.L.L ;.! ` C.Z.c.C.` J ] ] _ ` { _ ] ] ] I _ L _ L _ J G _ ] ` ` @.G I } G I G F G 9 G } f ; $ $ @ |  .",
"E ' ` ` I w.w.(.k L n.A.L.L 1.X.] I m.0.@.x.h.` _ _ ' ` ` ` _ { I I ` L L _ Y L _ O.` @.` +.6 G G ,.P I P G , t q.6.| 6 w 6 2 < ",
"8.` _ n.k.z.@.8.E J O.] _ 6 _ ` C.i.B C.x.0.0.@.@.a.u.Z.` ] k.] ` @._ L @.C *._ _ E ` ] @.m =.` G 9 < G 9 G * F G 9 6 F 6 6 6 2 ",
"' A.c.G.9.-.8.0.9.r.h W H _ ] l.n.z.@.F m.0.@.z.l.y C.I { [ l.' _ { ^ 7.6 @.2 _ ` I _ @.2 I ` _ I G y 4 9 7 :.L G F 6 y 6 4 J 6 ",
"-.G #.L 8.c.G.j.A.-.P [..._ { { { 8.h._ G -.[ _ U j.-.-.@.' h.{ ` ` ! E { U ] v J U _ 4 _ O.` L P I x * |.p G I G F G J - N % v ",
"` ` 8.L =.2 w } 6 H u 3.| F F F G L l.+._ ] ) [ H ] { U { L ] ' L ] L _ H ' _ 2 ^ ( _ I ` @.9 6 4 8 < p l 8 < @ d * - K % 6 6 < ",
"E { F j.{ 2 @.8.E ` { _ I I _ !  .e.G l.9.8.` 0.E L L _ E _ L ] { _ L J J 9 x L ` I I _ @.2 q. .L G G F x G F 2 G 9 % F G $ 6 < ",
"k.H { E y ] c.E ] L J _.S.F.m.A.b.>.O.J 9.-.' L H n.n.a.z.Y { ' ] ] L @.#._ ] y G L ' ! 2 ] ,.` O.I I I _ 9 < F < H 6 $ 2 9 $ L ",
"$.i.] ..E 8.N N.] *.O.- y J 2 , F G 8 ] E %.&._ F { ] _ 9.i.{ [ -.[ i.] E I { 2 J ~ C F E < L < - - 8 , % 9 ( F G 5 G , R F 6 A ",
"{ _ ` H ' ) 9.G.z.] Y G.` { ` -.{ ^ 8.r 0._ C.n.l.m i.` J F -._ +.] H ! L 9.c +.` _ J G i 8.9 _ ! G I y W 9 F G y L C 9 3 6 2 6 ",
":.o.H y y y 6 2 J G.E G 9.L k.~ O.a.~ 8.e 9._ j.l.8.v 9.+.9.] G G ` { @.] 3 l._ ` I I a @.K a.I v ] 6 G 4 9 I 2 @ $ % $ $ $ g  .",
"{ { ] { { ] 9.] W.K &.O.H j.K 0.G @.I s.+.i 6 L @.k.k.I J J L E _ _ J L G @.] ] H , u @.i.F +.< E F I , F m c 4.u L F 9 y 9 y x ",
"@.l.n.-.9.L L l.J E 0.9.L O.` N.L @.' g.L _ L F H y y G J J L L _ 6 F P F 9 6 9 y y ` G i.Y ` 9 @.F E 6 I I 9 2 L , 6 9 6 6 6 6 ",
"] 8.{ j.9.{ { n.u I S K F @.I @.~ 9._ L w J H ] E L I O.6.W _ E _ L J ..X.G J G L G 9 4 G L I N ` G W - % Z 2 2 J 9 F 6 6 6 6 2 ",
"9.z.k.-.k.~ %.G w 9.-.` G l.J ` ' @.I G ` ] { ] ] ` E E _ E _ ] _ W _ I L I I L J I I H 2 G I n W 9 E % I L F - 6 v m 6 6 J 6 w ",
"F U / E F Y L ` y E L L d.{ =.] E ] E F { ] { 9.' E _ _ E { ` @.] ' ` E E E E L J L J L w G ` y I / I d.F 6 9 % J < y , 2 c c < ",
"9.8.] N.K I _ W R L L ` 6 +.' ` a.p._ X.] _ F H L L F J J L L H 6 u G u F G J F 9 9 I L o.E ` *.I Y _ , G 6 9 r R 2 y $ G 6 9 F ",
"` 9.j.] d.E ` W } E L ` 9 8.E ] I _ I R ` ] H J Y L J Y E L E L w J J J J G G H H F J L ..L ] 6 I F W < F 6 L 8 W 6 9 &.6 6 2 6 ",
"` ` 8.9.2 _ _ J H ` L ` 9 0.I ` I { I F ] _ L L L L L L I L _ J 6 I L J L F G J F G L L 6 G ` 9 E y _ , F 9 G - y 6 F $ F 6 2 6 ",
"` ] 8.@.n _ ` L G _ I ` y 9.I ` E ` L J ' ] y J L Y L E _ L L J y Y I J F J F u F G J J F G E 6 E y I , F 2 G - 9 9 9 n F 6 4 6 ",
"` I _ 8.S L _ X.w.G L ` 2 9.E ] =.9.J q.` { J L J L L L E E ` J 6 J L J F G G F y G L G q.G _ K I y I , G 2 9 T :.< 9 N H < 2 6 ",
"J ^ ' J F I I I i E J I C O.*.] =.] L G _ ' Y Y E _ E _ _ Y _ L J E J J J H L F x G I J 9 J _ ~ L N G M F 2 F - P 6 F o 2 v w < ",
"{ Y -.] ] Y =.F F ] O.{ N ` Y ` L E L y ] ` ` ` ' _ ] ` E I I I E E E J I J J H y G G L 6 G I F I F I m P F L - 9 6 H F F v v 9 ",
"E ] L ] ] -.Y ] 9 F $.J 6 ] J ] #.' J E 6 ' ` ' ] ] ` _ E _ _ _ ` E E L L L L L J G J 2 L J I N I 9 E - 2 A < , L 6 K 9 6 2 2 4 ",
"L ^ _ _ E H H { 6 I #.I L ` J ] K _ #.8.G J y 2 F w y X. .i y F u 9 y | X.8 6 6 , 6 6 y ` ) J v I 9 J 2 y U 6 , y , 2 9 2 6 < , ",
"Y _ ^ _ { ] @.Y e.F ' 8.L E J E J E J d.c.y 2 E { ] { _ ` ] ` J I ] E L E ` E L 9 - 9 I &.9 I 9 I 6 J 6 J ^ ,  .y F 9 G 9 y < 2 ",
"} ..2 9 2 ; , < Q -.C 2 y _ Y ` 9 { , 8.r q.L { _ E y J I I H y F G L L F w _ L _ 6 f u I & G 2 9 L F 2 % q ( u * % $ % , $ P h ",
"E I ` w E ^ Y ` _ ` 9 { ] J E / ] ~ D.r :.Y 9.` ] K =.@.y u _ L _ I y 6 Y Y m L H L 2 p u ' C G N L 9 F G < 6 6 9 F n F , F y 6 ",
"( ] J u J ' K E E C O.y 2 T - G , y 2 P ^ ` Y E F U ` y ` ^ E L E L Y O.6 E U 2 F H I 4 9 % < - 6 - P < , F N 9 9 v H < 7 6 J K ",
") c E X.2 J Y y 2 ] r { 9.9.W ] 9.W Q Y I S $.u L ] L _ I Y E H E Y U E ] F E y 2 n V 9 9 t O.L L I J G G 2 F - < w 9 - T L # $.",
"9 J , ' u 2 y E { 2 E I L J H L W I.G ] ] E E ` y u J b y 9 u L J y F F N G F 2 I F F F F 3 z ..F y 2 9 y y , G G 6 - , L $ 6 , ",
"9 w F 2 _ , 2 k @ 6 , 2 2 , < 9 8 J ] _ ` ` _ ] 9 I J 9 J I J G G u F J 9 L G 6 J L I J G G 6 ; , - , ; ; > 2 X f ; $ E + 2 , , ",
"L F u y N E E E _ L i ]. .G I E L _ _ E , w V v J ` E =.P y I G G L 9 I Y U J F 2 M 5 $ x y 9 x F G H a [.f H J J J y q , y 2 6 ",
"n 2 ( F J y L y Y F ; 1.- y Y E E E W , _ ` W ` Y y I 9 I Y J F y I U W F J y H J F L G - F 6 6 y L 6 X  .; y F , 2 , 2 , m , 1 ",
"F 6 2 u J Y Y L 6 h o.H J & 6 J J ` b E E I I I I Y Y I w 6 I K K Y 9 9 L ' U G F 9 9 9 F 5 H y G , % F 6 d k 5 6 6 w 2 - , - , ",
"2 6 G y 6 y 2 6 , w L I L 9 d y 9 w ) I I I L I L K B H J I 9 F 9 9 L L G M U J G 9 6 6 9 H q < , h 6 L G 9 - $ 4 , 2 2 , 2 , > ",
"k } $ < - k E.{.>.F L y G H T ;.G G _ I J J L < 6 9 9 9 6 6 y y 6 6 6 6 6 9 6 < - 9 9 9 6 9 6 6  .R L y 4 F 4 } `./.l @ & $ R k ",
"y i 2 9 y 9 2 6 2 L y J y F P 9 % F y I L L F w y 9 9 y 9 y y 2 9 9 6 6 6 6 9 6 6 9 9 6 2 6 < % 6 L 6 6 y 2 F - , , , < , , i 2 ",
"G y F L I G H L G 9 9 y H 9 G J 9 8 F 2 J G F 2 6 6 F 9 y 6 y 2 9 2 6 6 2 2 6 6 6 F 6 6 6 $ 9 4 L F 4 6 2 2 < 9 y 9 9 6 y w 6 6 ",
"< 2 8 9 y 6 w 2 F F 6 F y H G G I R l 9 6 L 9 9 T y 9 9 y 6 J P G P < 6 9 2 8 Q 6 6 F 9 ,  .R F 2 6 x 6 6 2 2 2 < < , , - , - - ",
"2 2 2 w y 2 w 2 6 6 6 6 G y F L < 9 u % F , , y * '.^.^.G u F u y u y y R.^.'.t 6 < % , $ 9 2 - 2 , 6 v 6 6 2 < < < , < , , - - ",
"2 < < 2 6 2 5 2 6 6 6 6 y 6 H , J G F , - , 4 6 H y x R w I J J H G G 4 P F y G 2 , - $ $ F 9 9 $ 6 , 2 , 2 4 < < < , , , , $ 2 ",
"- 6 - < 2 2 2 2 < 2 6 2 6 J , L 9 2 J 9 < T.f 2 6 9 2 9 6 y 6 y 9 y 9 < < 8 9 2 < 8 Y.8 x 9 < < 6 $ 6 2 < , , < , , , - & $ 2 & ",
", > , - , - 2 2 , , < 6 6 6 2 F 6 J > F j ^.9 F 6 , F 9 J 6 6 6 2 9 9 F 2 9 , 6 y , U.,., % 6 , , , 6 2 , , - < - - , < - , 2 O ",
", > ; y 2 , 2 5 2 , < 9 v 6 F 2 L $ 6 o } 2 x 2 y 6 $ 9 F 6 8 9 9 2 F y F - 6 F , 5 & h X 3 $ 6 , 2 1 w 2 2 < < , - - < 2 , X , ",
"X r $ , > 1 n w , , < , c 9 , H - 6 ;.6 9 % 6 6 < F 6 $ 2 y 6 9 9 9 9 9 $ 9 J , , 6 $ 6 5 l 6 $ 2 , , q ; , , - w , w $ % . u . ",
"6 l 2 > 2 H y y F F F 9 9 < w $ 2 >.: G , r < y F < y 2 t < 9 9 6 9 4 8 y H , 2 y , r < F , ,.< $ , , , y y y 6 6 6 y 2 $ w s u ",
"5 , >.& & + w w v 5 , 2 < 4 6 2 & 2 y 6 - < < 4 % 6 < F 9 < < - , , , y G $ F $ , , < , 6 , < + , < , - - < , n , q + O - l 2 2 ",
"$ 2 , . & $ 5 y 2 6 2 < < 2 2 6 & 6 , , 2 6 6 , , $ 9 < 9 9 % < , , y F - y $ , , < 2 6 $ - 2 + 9 < , , - 2 < < 2 < X $   , 2 + ",
"+ + , 2 3.T $ $ v 2 w , < , , , - 2 2 , < - < , u ; % 2 , , 2 , 6 , 2 & 6 + 2 i , 2 - $ $ 4 , $ < , % - - w , w % X u <.u < @ $ ",
"O O $ $ F | ; $ $ & % - , - 6 6 $ , 6 9 6 2 4 y , i , , 2 2 , 2 6 - 2 2 6 $ u , F , 2 6 2 9 , $ 2 2 % - - - $ % + < k I , + + $ "
};
