/* XPM */
static char *_31d9d8ef1f34fb9ad7455956e02c01fOEcyCet9ZPhlaiVJ[] = {
/* columns rows colors chars-per-pixel */
"64 64 112 2 ",
"   c #070A13",
".  c #080B14",
"X  c #0E111A",
"o  c #0F121B",
"O  c #10131C",
"+  c #11141D",
"@  c #181B24",
"#  c #191C25",
"$  c #1A1D26",
"%  c #1B1E27",
"&  c #1C1F28",
"*  c #1D2029",
"=  c #1E212A",
"-  c #1F222B",
";  c #20232C",
":  c #21242D",
">  c #22252E",
",  c #23262F",
"<  c #242730",
"1  c #252831",
"2  c #262932",
"3  c #272A33",
"4  c #282B34",
"5  c #292C35",
"6  c #2A2D36",
"7  c #2B2E37",
"8  c #2C2F38",
"9  c #2D3039",
"0  c #2E313A",
"q  c #2F323B",
"w  c #30333C",
"e  c #31343D",
"r  c #32353E",
"t  c #33363F",
"y  c #343740",
"u  c #353841",
"i  c #363942",
"p  c #373A43",
"a  c #383B44",
"s  c #393C45",
"d  c #3A3D46",
"f  c #3B3E47",
"g  c #3C3F48",
"h  c #3D4049",
"j  c #3E414A",
"k  c #3F424B",
"l  c #40434C",
"z  c #41444D",
"x  c #42454E",
"c  c #43464F",
"v  c #444750",
"b  c #454851",
"n  c #464952",
"m  c #474A53",
"M  c #484B54",
"N  c #494C55",
"B  c #4A4D56",
"V  c #4B4E57",
"C  c #4C4F58",
"Z  c #4D5059",
"A  c #4E515A",
"S  c #4F525B",
"D  c #50535C",
"F  c #51545D",
"G  c #52555E",
"H  c #53565F",
"J  c #545760",
"K  c #555861",
"L  c #565962",
"P  c #575A63",
"I  c #585B64",
"U  c #595C65",
"Y  c #5A5D66",
"T  c #5B5E67",
"R  c #5C5F68",
"E  c #5D6069",
"W  c #5E616A",
"Q  c #5F626B",
"!  c #60636C",
"~  c #61646D",
"^  c #62656E",
"/  c #63666F",
"(  c #646770",
")  c #656871",
"_  c #666972",
"`  c #676A73",
"'  c #686B74",
"]  c #696C75",
"[  c #6A6D76",
"{  c #6B6E77",
"}  c #6C6F78",
"|  c #6D7079",
" . c #6E717A",
".. c #6F727B",
"X. c #70737C",
"o. c #71747D",
"O. c #72757E",
"+. c #73767F",
"@. c #747780",
"#. c #757881",
"$. c #767982",
"%. c #777A83",
"&. c #787B84",
"*. c #797C85",
"=. c #7A7D86",
"-. c #7B7E87",
";. c #7C7F88",
":. c #7D8089",
">. c #7E818A",
",. c #7F828B",
"<. c #82858E",
"1. c #878A93",
/* pixels */
"! f z ( ^ ^ J ! _ ^ ' Z W J ^ P k U ! W J k U i W J P G Z U ^ ^ ^ l k ( W [ ! _ [ _ [ N W P W U k U _ ' P k ! f _ W ! U Z ^ ^ _ ",
"U k i N Z n k M N Z N k n z G M ; i i y i n ^ f [ ^ U Z i G P _ J k r N Z Z M N Z N C k Z z N Z < i r i f N _ i [ [ _ J k P W ( ",
"^ n g P ! N N G P G z W P G J U $ = $ = $ 3 q , r y 7 , $ ^ R ( W n i P P N Z Z C C l Z D G C J $ ; & , = 7 r 3 y f r < = ' _ _ ",
"[ n N | _ D P J P W n [ ^ U W R a ^ ( U W ' R P U P W z = U ^ W _ N n [ ^ J ^ ! W W N [ ^ ^ U ! w _ _ W W _ ^ W ! W ^ N , ^ ' ^ ",
"z 8 f U Z k v z z n f Z Z z N n r k l n k i N z n z M l f i f a v q i U Z v C n n M a G G Z M M r z l v z k Z z N N N n f g k f ",
"^ z k R P N G P I P z R U I U U f W P P W z P P J P G P P r J P U z z W W P ^ [ ( ^ D } _ | _ _ f _ ^ U R z W ! U R U W W i W I ",
"_ z k ^ R k k f f z q f r k f i y U I J U a P P Z P D Z N r P R W z k W U k N N n z r n k n z v g _ ^ P U k ^ R P ( U P P f ^ ^ ",
"[ n n _ U z R Z R U U J D N D J a U U I U a P J U Z P N i k U ^ ^ n k ^ ^ M _ P _ _ _ W ^ Z ( _ l _ _ W P f _ W ( ^ ^ P a n [ _ ",
"^ z n _ _ z _ Z ( _ ^ P J G U U f W G P G f P D U G P R U a G W U k n ! R z } P _ [ _ _ _ ^ _ o.n | [ U W z ^ _ [ _ ^ ' _ k ( _ ",
"G i z ^ W n ^ C _ U W I U C U P y U W W ( z R U P D C z , k z n N i z U W n [ G _ W ' ^ | U | X.z o.( ^ U C | Z G g P n X = Z n ",
"=.N Z _ [ G [ P ^ R ^ _ J M U U f U W ! ^ n R W J G G z 4 ! P W | N M W ^ C _ D ( U ^ _ W Z ^ ^ z _ ' R W N } i i y _ Z @ 3 [ [ ",
"U i n #.o.z ' Z [ W _ ^ W Z W P 3 f z v M i z k z f l r 4 k y k C q z _ ^ z U Z ! W ' _ _ G [ _ 8 z N n l y N M M n n f $ = z Z ",
"k k G _ } y & 7 z z z k g w z g 3 f i = i 4 i i y q g 7 4 f r i k k Z ^ } 3 , , z v k z v i z z 7 k k & i q i f i q k y 3 z f i ",
"[ X.P [ | _ &.:.o.[ P [ [ | [ [ f ^ W 7 ^ z D P R n W N i U P I } ^ J ! ^ P } o.^ ( C ( ' [ _ | i W | 7 ^ N ! ^ ( N [ M i ^ ^ ^ ",
"! _ z G D P | [ _ _ G ! ^ _ ' _ g [ ^ , ! z U ^ [ n W N q U J U W ^ n P N Z _ | ( ! N W ^ ! W W f W ^ 7 W n W [ _ D _ G a ( R W ",
"W U M W U U | ^ W _ M ^ G ^ ! W z } ! 4 P l G P U l J f 7 Z N D ^ U C W ^ C ( ! R ^ n R G U J P a ^ [ 7 I v R W ^ l R k 8 P G P ",
"k ! W ! _ z | _ ^ _ ' ( _ N [ W k [ ^ , U W P U J U G U ! G N P g U G U W f Z G G U I U R k R U i ^ [ r R ( ^ _ W _ P ( ' R R I ",
"N | | [ [ k =.X.' | | X.[ C o.( f ^ ^ 3 Z N M Z G z N Z i k i f v _ W _ U f + O 4 U U W W k _ R f U ' r D Z G U P D G P g z k v ",
"n ^ _ | | v 1.< X + . N #.G | ^ g | ^ 3 W ^ U _ _ ^ ! ^ = ^ ^ W g W U W W f r y f P D G U v U U r ^ ( i ^ [ _ o.} [ ( [ 3 | _ ^ ",
"z _ _ | [ g ^ W U ' R P W Z | | v [ [ 7 W ^ W R ' ^ Z P 3 W G P k G P I U 7 G N N N M n Z z G U f U _ r ^ ! ^ ^ _ ^ P ! 3 _ ^ _ ",
"k W _ _ | z o.[ _ [ o.X.' P o._ r G J 7 ( W U R P U U W , U P P a G G W P w P N Z G G D G z P G 7 z G 7 R I R W I U R ^ , _ ! P ",
"z ' _ | _ n o.} _ _ o.[ ' | o.| k ' | q o.^ W _ } ! W _ 3 } W I i U P U D q P G Z N P J J G U P 8 J W 4 ' P W _ W U _ _ 7 #.' W ",
"n ' ^ X.^ k #.o.[ @.W _ [ _ } [ f | [ 7 i k f a i n C f ; I G Z a Z C P C y U P P Z G P Z D Z I q W W q i f a g f C G l 4 ( W W ",
"n w q n z C z n z N q n z v n n n | =.q X.[ o.[ X.[ ^ ^ 3 k f k k 3 q l i f g i f k < a f f g a i U ' q | _ o.o.| _ _ o.q n z z ",
"U z C o._ } ^ _ } | n ' | [ | #.3 i k , i i i r f r y r 3 Z Z Z C a k W Z P P J W R g U P G P U & r a , l a l a y v U N r R J U ",
"^ n q U M N P M N i v _ U [ ' [ M N X.[ [ n _ l k I ^ [ 7 P P C G i 3 v i z C k l r i U P I G J g f ^ ( _ l ' k X.[ } #.r _ ^ R ",
"| J i [ ^ U W ^ ^ l l ^ _ } W ^ f g [ U _ N o.a W W P _ r U I W U f 7 G Z D J P R r a P Z I G J r i W P _ N o.k [ _ ( @.r | | o.",
"#.C P :.o.<.[ ' | N z _ ' _ G n z z ! ^ } N o.v &.! R o.7 [ U ! ! g l W P W R G R k z W J U n z g g R ! ( Z &.z :._ ' =.f =.^ | ",
"X.Z r v z l k g k r k i N P v C f i W P _ r z w v a g r 3 | ^ P P i 7 a r k r i a q r q k N z N r a U P _ i k r z k l r q &._ X.",
"[ C U ;.#.| ' ' | ^ | n ^ | [ @.$ 3 4 3 3 Z @.k | _ _ G < ^ W I P k z ' ! U U J I J R g ^ | [ #.$ , 3 7 3 Z #.l #.#.o.R 3 o.[ ^ ",
"M f f P J Z z v l N n r _ ^ ! _ f ' _ | ( a #.g [ ^ } Z ; n k l f 8 r n l k f a f f v 4 U _ ^ _ i ( ^ _ ^ y | f } [ &.U ; D M N ",
"=.R G :.=.| ( ^ ( ^ ^ C I ( _ W f [ [ [ [ P [ z _ U [ Z < #.| [ ' z N ( W W P U P W G k R ( ^ ! f ' } W ^ Z [ k [ ^ @.Z 3 =.=.o.",
"} z n } _ _ W ' | ^ ' Z _ _ _ _ z [ o.&.| k =.n o._ [ _ ^ ! [ _ ! i k R P U P ! _ W U z W [ _ _ l _ } | _ f o.n #.| | | ! ^ | | ",
"' n g P Z C N G G Z G k N Z G U 3 k l a k P #.n &.| } W z W ( [ J g f N n z z M N C N f N Z G I 3 f n k g J &.n :.;.o.^ n _ } #.",
"X.G k W ^ C C J G Z k J P G N R $ = , 3 , r i q l i f , 3 | ' o.! z k I R N D G G D l D G J G _ = & ; 3 ; i f q n z z 3 4 o.X.#.",
"=.Z P :.@.U } _ ^ _ Z X.} } ^ ( l #.#.#.=.=.#.=.| [ @.G , =.#.} | M N | _ G W U U W n ^ ^ ^ ^ [ k &.&.o.#.=.o.;.#.#.;.J 3 :.=.#.",
"N y z ^ U n C N Z G f P P Z Z N i G N P I N ^ J R D U G N z v k f 3 i P n k z k k z r n N n C N q D M Z G v W Z W P U G n l v v ",
"' n N X.' U _ [ ^ ^ N [ [ _ ( ^ f } } [ &.Z | #.' [ _ o.[ z ^ U U l z W P N P U P I v ^ ^ ! ! ( f [ _ _ | N [ [ ^ [ _ } _ k ^ W ",
"[ N v } | N n z z n i v z M z k l _ W W | n [ o._ } [ ^ [ z [ ' ^ z k W U g z f f k q k k n v z k _ _ ( | z } _ W } [ ^ ( z } | ",
"o.Z G o.@.Z | P } ^ _ R ( Z W W k [ _ _ } z o.} X.| @.W z G #.[ _ n n ( W n W N ! R U I W D W ! g X._ _ | z X._ | [ | ! k D X.| ",
"[ n G =.#.Z =.P | } _ ^ ^ U ^ W k _ ^ ! _ v _ | | | X.} #.N | _ W k n _ _ l | Z _ ^ ! W _ W _ [ z o._ ^ ( v [ ^ [ ^ } X.| n [ [ ",
"J f G @.@.G o.G o.( _ ( | U [ W k _ ( _ o.Z o.#.X.U ( G 7 U Z P Z r M ^ W N _ N _ U W W [ I _ ( k | W ^ [ z _ _ ^ I ! Z q k Z J ",
":.G P o.@.U | P _ W ^ [ W D W U i [ [ _ ' Z #.@._ [ [ U k #.X.[ #.Z C ^ [ G | Z ! U W ( W G U W k } ! ! ( Z | [ W W _ P f J _ X.",
"G f N <.:.N ' N [ W W ^ R Z W G 7 z k z n i G G G D D f r P n Z N 7 v | | z U k U P P I W G ^ I 8 z z n M f z n N N C k r i n Z ",
"n z W } #.i < 7 n z l v k r z k 3 f i , k 7 l z f y l i 7 q l i z k Z W _ w = 3 l l g k f r k f 3 f i = k 3 i k r q v i 7 M i f ",
"[ | U X.o.W o.| [ ( C _ [ [ _ ^ f _ _ 7 ^ C _ _ [ D o.Z f G ^ ^ _ W G W W R _ ' W P z W ( [ _ ( r ^ W 3 [ N ^ I ^ Z [ Z i [ ! _ ",
"^ [ n R D P | } [ ^ Z ( } _ [ _ z ' _ 4 o.C | o.X.G [ G a #.! ! U ! k N M N ^ U G D k P ! W ! W a ( W , } v ^ _ _ C [ G i ^ W _ ",
"W W C ^ ! G _ ^ ^ _ M ^ R ' ( R n | ' 7 ^ k _ W _ n W z 8 W U J P P n D G G U P Z P i Z D U G G y U W 3 U k P P W z P k q ( D U ",
"a P G P P r U N P C G G W w U U k _ W 3 U I ^ U U W P U ^ U P J i P Z G I i W G Z J D P U l I G r R _ 7 D P G G Z P D G R I Z P ",
"f U U W P k N P I G G G Z k W W a _ I 3 Z M N P Z N Z C f v g z k ^ ! _ W k #.[ ^ W P ( ^ z [ W r P W 7 N v k C n n N N i k k i ",
"k U G P J i z R U D P Z n n W U f [ ! 4 W W W _ _ ! R U ; _ W U a R I U W k ' ^ n $ G G ! n U P i U ! 3 U I U W U R P P ; ! P ^ ",
"a Z Z G I q k I G C G N f z W W l } ' 3 _ U ^ W ! U N G < U D W r Z P G R r P U i X n N Z N I W q R ( 3 P P I U I I D G , W P J ",
"f N D J G q a l k n z n i k W I r G Z 3 ^ U W W I G G D = J C Z f N J J P r ^ U f   Z W P r U W 7 M z 3 P J v C v k P Z $ U C D ",
"y G Z P G w U G Z Z G I P z _ ^ k ^ ' w | U [ ( ^ P U P , ^ P P r G G J G y ^ U U R D G C f R ^ 4 J R 3 ( W Z r w C W I 7 ^ R P ",
"a G P W D w U J G Z N Z G a I ! i [ ^ < g r r i f n N i , P Z Z f G P U D k U W U G G N P Z G I q W U 3 f i i k f n Z i ; P G C ",
"a 7 3 g a z r f i k 3 i g z z k n | | 7 | W _ _ ^ U J U $ i f f a 3 3 a r k f a g 7 3 f i f k k i U ! 7 ^ ( | ( ^ W I P , k i a ",
"z f k ^ P G Z G U ! f U ^ W | ' 3 y k ; f w a i q f z q ; n v n n a k U J P G G U z y P U J P ^ $ r w = r f i w q f n a 3 M M n ",
"Z i 3 z i k z k k 3 k U P ! _ _ n n _ _ ^ q ^ w ! D G W < P Z n D a 8 n f z n z z 7 i P P G G W a g U W ^ l U a U G U ^ 3 J D C ",
"P f 7 Z Z Z C J G k f D U ^ ^ U g z ^ P W r _ k W D P R = P P P U v r U I P G P I k a P P U P G w i P Z U n ' r U R W W 4 W U U ",
"P k k ! I U U G U r k G U ( N z q 7 f l g i } i ( G J ^ 3 U D P R z l [ ( [ ' R _ k g P I W f z y k G G W z _ f _ U P W 7 _ P P ",
"G f 7 a i i y i i r 7 , w f k f = 3 , = 3 , k 7 f r q 4 3 I D P U g q f g l i i f a 7 4 y f r f 8 i G Z ! q f 7 f i i 8 3 W P U ",
"P k n _ W U P G P U W z P W ^ U i ! P W ^ r ' f ! W U n ; ^ U G U g Z [ ' ' ^ W _ ! ' M I [ _ _ @ , 3 4 3 Z X.f _ _ ^ D = ( R J ",
"f q r n z z f i f k n q P n 7 i r U W U I y _ r P J W v $ z f l k 8 i N N N l k k Z n r ^ v 7 i g W W ( W y } i W U _ N $ n k f ",
"' N C [ [ ( R U U ^ W N U G N n f R P P U N R a G G U n 4 ^ ( _ } N n | | | ( W ^ W W Z U G M M f U R I W Z ^ f W I _ M q [ [ ( "
};
