/* XPM */
static char *_5289d0a65204023b573f5e6d6728c6aXmeWBFZ9mRXmIqau[] = {
/* columns rows colors chars-per-pixel */
"80 40 214 2 ",
"   c #F90B02",
".  c #FA1406",
"X  c #F91D06",
"o  c #FC1B0A",
"O  c #F61903",
"+  c #FB240B",
"@  c #F62D0B",
"#  c #FB2B0C",
"$  c #F62508",
"%  c #F5340C",
"&  c #FA330E",
"*  c #F53A0D",
"=  c #F93A0E",
"-  c #FE2C12",
";  c #FB3C12",
":  c #FB3512",
">  c #F74312",
",  c #FA4314",
"<  c #F64B13",
"1  c #FC4E19",
"2  c #FA4916",
"3  c #FB531A",
"4  c #FA5C1B",
"5  c #F65816",
"6  c #F1460E",
"7  c #FA631D",
"8  c #FB6B1E",
"9  c #F6691B",
"0  c #FA731E",
"q  c #FA7A1E",
"w  c #F5761C",
"e  c #FD6C21",
"r  c #FE6521",
"t  c #FC7321",
"y  c #FC7B22",
"u  c #F77A20",
"i  c #7DF27D",
"p  c #FA831E",
"a  c #F8881E",
"s  c #F7951E",
"d  c #F7A21D",
"f  c #FB8421",
"g  c #FA8D22",
"h  c #FB9423",
"j  c #FA9C22",
"k  c #F79A23",
"l  c #FBA423",
"z  c #FBAB24",
"x  c #FBA92A",
"c  c #FAB127",
"v  c #F9B429",
"b  c #F6BB2D",
"n  c #F8BB2D",
"m  c #F7B227",
"M  c #F8BA35",
"N  c #FCAC36",
"B  c #DEDD3F",
"V  c #F4C02F",
"C  c #F5C434",
"Z  c #F4C937",
"A  c #F4C639",
"S  c #F3CC3B",
"D  c #EBD43E",
"F  c #E4DA3E",
"G  c #E7D63D",
"H  c #F1D23E",
"J  c #EECE3D",
"K  c #CCE93F",
"L  c #CCE83E",
"P  c #D3E43E",
"I  c #D9E13E",
"U  c #FBBA45",
"Y  c #9BF35E",
"T  c #BDEE45",
"R  c #B9EF48",
"E  c #ADF24B",
"W  c #B5F246",
"Q  c #BBF143",
"!  c #B3F14A",
"~  c #BBF14C",
"^  c #A5F453",
"/  c #A9F352",
"(  c #A0F45A",
")  c #BEF250",
"_  c #8CF36D",
"`  c #95F363",
"'  c #94F368",
"]  c #8AF272",
"[  c #83F375",
"{  c #DCDF42",
"}  c #DEDE49",
"|  c #F6C843",
" . c #E2DB41",
".. c #EBD642",
"X. c #CDE741",
"o. c #C4EC42",
"O. c #C9EA42",
"+. c #C9EC4C",
"@. c #D4E341",
"#. c #DAE142",
"$. c #D8E34C",
"%. c #D9E855",
"&. c #C7F04D",
"*. c #E2E453",
"=. c #7B7DF3",
"-. c #F63B9C",
";. c #DF3CBB",
":. c #EC3CAD",
">. c #F43BA4",
",. c #F13BAA",
"<. c #F83AA4",
"1. c #EB3BB3",
"2. c #E43BBC",
"3. c #E73BB7",
"4. c #F03BB0",
"5. c #F746A7",
"6. c #EB44B6",
"7. c #DD3BC5",
"8. c #DA3BCA",
"9. c #D63CCD",
"0. c #CC3EDC",
"q. c #D33DD4",
"w. c #D53CD4",
"e. c #E03BC2",
"r. c #C63EE5",
"t. c #C73EE5",
"y. c #9D5DF3",
"u. c #9E5BF8",
"i. c #AE4DEC",
"p. c #BB44EB",
"a. c #B44AED",
"s. c #BA46E7",
"d. c #A952ED",
"f. c #AC4DF3",
"g. c #B347F1",
"h. c #A555F5",
"j. c #A656F4",
"k. c #B758EE",
"l. c #8D6DF4",
"z. c #876EF0",
"x. c #9466F5",
"c. c #9865F4",
"v. c #827AF4",
"b. c #8774F4",
"n. c #9077F9",
"m. c #A463F7",
"M. c #C843DE",
"N. c #D947D1",
"B. c #E447C5",
"V. c #C441E3",
"C. c #C042EC",
"Z. c #C547E3",
"A. c #CB52E5",
"S. c #5EF29B",
"D. c #6DF28B",
"F. c #7AF382",
"G. c #73F387",
"H. c #64F395",
"J. c #53EEAB",
"K. c #4DF1AC",
"L. c #54F2A5",
"P. c #52F1AA",
"I. c #5AF2A2",
"U. c #45ECBD",
"Y. c #4AEBBB",
"T. c #4CEDB4",
"R. c #47F1B6",
"E. c #4DEDAD",
"W. c #5D9DF2",
"Q. c #5E9CEF",
"!. c #6E8CEF",
"~. c #7587EF",
"^. c #6599EE",
"/. c #6C8DF5",
"(. c #728AF4",
"). c #7684F4",
"_. c #6B91F4",
"`. c #649AF4",
"'. c #7191F8",
"]. c #58A9EE",
"[. c #4CB5ED",
"{. c #44BDED",
"}. c #4BBBE9",
"|. c #51B5EC",
" X c #4EADF3",
".X c #5BA3F4",
"XX c #53ABF4",
"oX c #59A9F2",
"OX c #49B3F2",
"+X c #46B8F1",
"@X c #56B2F2",
"#X c #3FDECD",
"$X c #3ED9D4",
"%X c #3ED5DA",
"&X c #3FD7D8",
"*X c #3FE7C7",
"=X c #3EC9E5",
"-X c #41DECD",
";X c #45CEDE",
":X c #41D5D5",
">X c #41DCD2",
",X c #42D2DD",
"<X c #40D8D9",
"1X c #44E5C5",
"2X c #42E4CC",
"3X c #42EBC1",
"4X c #41E2D2",
"5X c #45C4E4",
"6X c #44CBE3",
"7X c #46C5E9",
"8X c #41D2E1",
"9X c #42C0F0",
"0X c #80F280",
"qX c #8080F8",
/* pixels */
"        o X # * 6 5 9 q a a h j s l l l z z b b C S S H H  .F  .I P K K K o.Q W E / ( ` ] F.D.I.J.T.Y.-X-X%X=X=X9X+XOX XW./.=.b.y.i.s.t.0.q.w.e.e.;.2.:.:.>.>.>.",
"      . . O # % < 5 9 w f h h h s l l l z c b V C Z S H H H F  .#.@.K K K Q Q W E / ( ` ] F.D.I.J.E.E.-X>X%X=X=X9X+XOX XW./.=.b.y.i.s.t.0.q.w.e.7.2.;.:.:.,.-.>.",
"      . o + @ * < 5 0 p a f h h s l l l z c b V C S S | H  .F  .I @.K K K Q Q W E / ( ` [ F.D.I.I.Y.Y.-X>X,X=X=X9X{.OX XW._.=.b.y.i.s.M.0.0.9.8.;.;.3.:.,.>.>.-.",
"  .   . + + % * 5 7 9 q f g h h l s l l d c b V C Z H H H D F  .#.P K K o.o.~ W E / ( ` ] F.D.I.J.J.Y.1X>X,X=X=X9X+XOX XW._.=.l.y.i.s.V.0.0.w.8.7.;.;.:.:.,.>.-.",
"  . . o X @ * 2 5 5 w w f g h h s l l l l m b V C Z S H H ..F  .I P L X.o.T R ! E ^ ( ` ] F.D.S.J.J.Y.1X;X;X=X=X9X+X XXXW./.=.l.y.d.s.M.t.0.w.8.7.2.:.:.:.>.>.-.",
"    O $ # & * 1 5 9 e u a g h h k l l z z m b V Z Z S H D .. .I I P L o.o.T Q ! / / ( ` ] 0XD.S.J.Y.Y.1X>X:X=X=X+XOXOXXXW.'.=.l.c.d.s.M.V.w.w.e.7.2.3.:.:.>.-.-.",
"o O X $ & ; , < 5 9 9 u f g h h j l l l m c b b Z S S H H  . . .I L L o.o.T R E E / ( ' ] 0XD.H.J.T.Y.1X>X:X;X{.+X+XOXXX`.'.=.l.y.d.s.Z.M.w.w.w.7.2.1.,.>.>.-.-.",
"X X $ & ; , 2 3 5 r e y f g h h k l l z z c b b Z Z S H H  . . .I L X.O.o.T Q ! ! / ( ' ] 0XD.S.J.Y.Y.-X-X;X5X=X9X+X X.X`.'.=.l.y.d.a.C.V.V.w.e.7.2.3.1.,.-.-.-.",
"O + # : = 2 2 4 e e t u f g h k l l l l x m b C C S H H .. .B I I L L O.o.T ~ W E / ( ` ] 0XD.S.I.3X3X1X$X%X=X7X9X+X X.X`.(.=.x.y.d.i.C.Z.M.0.w.8.2.3.:.,.>.-.-.",
"+ # & ; , 1 4 4 r 9 t u f g h h k l x z c m b V Z Z S H D G F B I L L O.o.o.R W E / ( Y ] 0XD.S.P.P.3X2X#X&X=X=X+X+X XXX`.(.=.l.y.f.a.s.s.0.w.9.8.e.3.:.,.>.-.-.",
"$ @ : , 2 4 4 7 r t t u u g g k j l l x c m b V C Z S ..H D F B @.P L O.o.T T W ! / ^ ` ] [ D.S.P.3X3X3X#X%X=X=X{.OX X.X`.(.b.l.y.d.i.p.s.V.0.w.8.7.2.1.,.>.-.-.",
"@ @ ; , 1 4 7 7 9 t t u f h h k l l x z z m m b C Z S H D G F B @.@.L K K o.T Q ! E ^ ( _ [ D.H.I.T.3X4X4X%X=X7X{.OX X.X`.).v.x.y.i.i.p.p.0.0.q.8.7.;.1.:.>.<.-.",
"% @ ; 2 3 4 4 7 e e t y f h h k l x x z z c n V Z Z S H J G G B #.@.L O.K o.Q Q W E / Y ] [ D.S.P.R.3X3X$X&X=X7X{.[. X.X/.(.=.x.y.d.g.p.p.r.0.q.w.8.2.3.4.,.-.-.",
"@ % , 2 5 4 5 7 e e t u f h k k x l l x c c n V C Z S S D G F B @.@.X.K K K K Q W E / ( ] 0XD.S.P.3X3X3X4X&X%X7X{.[. X.X`.=.b.x.y.d.g.p.p.p.r.0.w.8.e.3.:.,.>.-.",
"% ; , 1 5 4 4 e e e t y f g h k x l x z z c n V Z A S S J G G B @.@.X.X.K K Q Q T E / Y ' 0XD.S.P.R.3X3X4X&X=X=X{.[. X.X`.).b.l.y.f.g.p.s.s.r.0.w.9.e.3.4.,.>.-.",
"% * * 1 5 4 4 9 e e t f g g h x x l z z c m n V C Z Z H J G G B #.@.X.X.K K K Q T W E Y ' [ D.S.P.T.3X3X4X&X8X=X{.[. X.X_.).b.x.h.i.g.g.p.r.r.0.w.9.e.3.1.,.<.>.",
": * , > 3 4 4 r e 0 q p p s j l l z z z c v b V C A S H H D F B { X.X.X.L X.X.o.Q W E ^ ` i D.S.P.R.3X3X4X<X8X6X}.OX XW._.).z.x.h.f.g.g.r.r.t.0.w.8.;.2.:.,.>.>.",
"% * ; 2 3 4 4 9 8 0 q p a s j l d z z z c v n V A A S S D D G B B { @.X.@.X.O.o.Q W E ^ Y i D.S.P.R.*X*X4X:X,X7X{.[.]..X!.~.l.c.h.f.g.g.C.C.t.t.w.8.e.3.1.,.>.>.",
"% % , 2 3 4 4 r 8 0 q p a h l l z z z c c n V V A A Z S D D F B @.@.{ X.@.L X.o.Q W E ^ ` i D.S.K.R.*X*X4X:X,X6X{.[.oXQ._.=.b.u.h.f.g.g.C.C.t.t.q.8.7.1.1.>.,.>.",
": = , 2 1 5 4 r e q p a s j j l z z z c c n V C Z Z S H D D F B { { @.L B L X.X.Q W E ^ ^ i i S.L.R.R.*X2X>X;X6X5X|.oX`./.=.b.u.f.g.g.g.C.r.t.t.q.8.e.3.1.,.,.>.",
": : ; , 2 3 5 7 e y q a h j l d z z z c v n V C C S S S D D F  .{ { X.@.@.L X.o.K W W E Y _ i H.L.R.U.*X*X#X,X6X{.|.].^.(.v.l.u.h.f.g.C.r.t.t.0.q.8.e.3.1.4.,.,.",
"@ : : , 2 1 5 7 e q p g s s l l z c z c v n C C A S S S H D F  .{ { { { I I P X.Q Q W ^ ^ i i H.L.R.R.*X*X$X,X6X}.|.].`.!.v.x.u.h.f.g.g.C.t.t.w.9.8.e.3.:.4.,.>.",
"- - : , ; 1 5 4 0 q f a s j l d z z z c v b M C Z Z S S H G D F { { @.{ @.@.@.X.o.Q Q E ( _ i H.S.R.R.R.*X4X<X8X5X[.].^.).v.x.u.h.f.g.p.C.r.0.0.q.8.7.3.1.,.,.,.",
"- # % ; * 1 5 4 8 q f g s j l z z z c c v b V Z Z S S H H G  .F { { { { #.@.@.X.o.Q W E Y ` i D.L.K.R.*X*X$X<X8X5X|.oX^.(.v.x.u.h.f.g.g.C.r.t.0.9.7.2.3.1.4.,.,.",
"X + # % * 2 < 5 9 q p a j s z l z z z c v V C C S S S S D D D  .{  .{ { { @.P X.o.Q Q E Y Y i G.S.K.R.3X1X-X:X;X5X|.].^.qXz.c.m.h.f.g.p.C.r.t.q.9.8.2.3.1.:.:.:.",
"+ X $ - % > 3 5 9 q p h s s l z z z z c v V C C S S S S H D ..F F  .{ { @.{ @.X.O.o.Q W Y ` i G.S.K.R.U.1X-X>X;X5X|.]._.~.qXc.j.h.f.f.g.C.r.0.q.9.7.e.2.1.:.,.:.",
"o o + @ % * < 5 e w p a h l z d z c z v v V V Z S S S H H D ..F  .F { { P B P X.o.o.Q W ^ Y i G.H.P.T.U.1X-X:X;X5X|.oX^.~.v.l.j.h.h.g.a.C.r.t.0.9.8.2.3.1.1.:.:.",
"O o X $ % * < 4 8 w p h s s l s z z z c v V V Z S S S H H D D F  . .{ { { { @.X.K Q Q W ^ Y _ G.H.P.T.R.1X-X:X;X7X|.oX^.!.v.l.c.h.h.g.a.p.r.0.q.9.7.2.3.1.:.:.:.",
"o O X + @ * 2 < 8 w q g s s l l d z z c c V V Z Z S S H H H F  . . .{ { { { @.X.O.o.Q W ^ Y ] G.H.L.E.U.1X>X:X;X5X|.].^.!.qXz.y.u.h.f.g.s.r.0.q.9.8.2.3.1.1.1.:.",
". . O X @ * 3 4 7 w p a s j l d z z z c c V V C Z S S S H H D .. . .{ { B L @.X.O.o.Q W ^ Y ] G.H.L.E.U.1X2X:X;X5X7X].^.!.v.l.c.u.h.f.g.s.r.r.q.9.7.e.3.1.:.:.:.",
". o o + : ; * < 7 w q a a s s l d z z c c n V Z S S S H H D D F G { { { { $.@.@.O.o.Q W / Y _ F.H.I.E.U.1X2X>X;X7X|.].^.!.v.z.c.u.h.f.g.p.r.0.0.9.7.e.3.1.1.:.1.",
". . X + @ : 3 4 8 8 q p g k s d z z z z c n V V Z S S | H D D F F F { #.B @.@.X.o.Q K W ^ Y _ F.H.L.E.Y.1X>X:X;X7X|.@X^.!.~.z.c.y.h.f.f.s.0.0.w.8.7.2.3.1.1.:.:.",
". X X # @ * < 5 5 7 y y p h j k l z z m v v n C C Z S H H D G F F B #.#.#.#.@.O.o.o.Q W / Y _ i S.S.K.R.1X-X&X8X5X|.].`.!.=.z.c.j.j.j.i.s.s.0.q.9.;.;.3.1.,.,.,.",
"O X X # @ = 2 3 7 8 t q a h k k x l z c v v n n C Z S S S D G G F B #.#.#.#.@.K K T Q E ^ Y [ i H.S.K.U.1X-X&X,X5X}.@X^.(.=.b.x.c.j.d.a.s.M.0.q.7.;.3.1.,.,.,.>.",
"X + + # @ , < 3 7 7 t f f h k k l z z m v v b C C Z Z H S D G G F B B #.#.P @.O.o.T Q ! ^ ` ] G.H.L.P.Y.1X2X&X,X5X}.].`.(.qXz.x.y.j.d.i.s.V.0.9.7.2.3.:.,.,.<.>.",
"X + + # & , > 5 7 7 0 f f a h k l z c m m v M b C Z Z Z Z D G G F B  .#.$.$.$.X.o.T R ! ^ ' [ i H.I.K.Y.1X2X&X8X6X}.].^.'.).b.x.y.j.f.i.s.M.0.9.7.2.1.1.,.>.>.<.",
"+ + - # % 2 > 3 7 8 8 q u a k x x x x v M M M M C A A A S J D G  . .} %.$.$.X.&.~ ~ R / ( ' [ F.H.S.J.Y.1X*X&X8X5X}.@XQ.'.=.b.l.y.d.d.d.s.M.M.w.e.2.1.:.,.>.>.>.",
"+ + + & : ; 1 4 4 8 0 y f g k k x N N N M N M U A A A | A J D G  . .} *.*.$.$.&.&.) ! / ( ' [ G.H.I.P.Y.1X$X&X%X=X}.]..X_.).=.l.c.m.d.d.s.M.M.w.B.3.3.5.>.5.>.-.",
"- + - : : 2 1 4 4 r 0 y f f h k N N M U U U U U | | | | S ...... . .*.*.*.%.%.&.&.) ) / ( ' [ G.H.I.P.Y.3X4X&X8X=X}.@X.X'.).b.l.c.m.m.d.k.A.A.N.B.6.6.6.5.5.5.5.",
"- - - ; ; 2 3 5 7 e 8 y f f h h N N U U U | U U | | | | | | ......*.*.*.%.%.%.&.&.&.E / ( ' 0XG.H.I.J.Y.1X#X&X%X5X7XOX.X_.'.v.n.c.m.m.k.k.A.A.N.B.B.6.6.5.5.5.5."
};
